<?xml version="1.0" encoding="iso-8859-1"?>
<!-- Generator: Adobe Illustrator 16.0.0, SVG Export Plug-In . SVG Version: 6.00 Build 0)  -->
<!DOCTYPE svg PUBLIC "-//W3C//DTD SVG 1.1//EN" "http://www.w3.org/Graphics/SVG/1.1/DTD/svg11.dtd">
<svg version="1.1" id="Capa_1" xmlns="http://www.w3.org/2000/svg" xmlns:xlink="http://www.w3.org/1999/xlink" x="0px" y="0px"
	 width="952.427px" height="952.427px" viewBox="0 0 952.427 952.427" style="enable-background:new 0 0 952.427 952.427;"
	 xml:space="preserve">
<g>
	<g>
		<g>
			<path d="M772.527,0c-91.68,0-166.001,74.321-166.001,166.002c0,91.68,74.321,166.002,166.001,166.002
				s166.002-74.321,166.002-166.002C938.529,74.322,864.207,0,772.527,0z M772.527,288.003
				c-67.379,0-122.001-54.622-122.001-122.002h122.001V44c67.38,0,122.002,54.622,122.002,122.002S839.907,288.003,772.527,288.003z
				"/>
			<path d="M401.259,190.894c-39.275,6.747-128.838,24.62-184.564,35.864c-27.751,5.599-47.703,29.986-47.703,58.297v76.946
				c0,73.717,60.107,133.477,133.824,133.477s133.13-59.929,133.13-133.646c0-3.232,0-141.704,0-141.704
				C435.946,201.736,419.384,187.78,401.259,190.894z"/>
			<path d="M62.079,932.427c0,11.046,8.954,20,20,20h723.538c11.046,0,20-8.954,20-20V771.299H62.079V932.427L62.079,932.427z"/>
			<path d="M43.898,740.287H62.08h763.538h18.184c16.566,0,30-13.432,30-30v-24.675c0-16.567-13.434-30-30-30h-88.195v-15.506V624.6
				v-5.346h100.29c16.568,0,30-13.432,30-30V424.866c0-16.568-13.432-30-30-30h-278.59c-16.569,0-30,13.432-30,30v164.391
				c0,16.568,13.431,30,30,30h100.29v5.347v15.506v15.507H522.312v-15.507v-15.506v-37.512c0-32.846-26.627-59.473-59.474-59.473
				H409.03c-10.504,0-19.627,7.229-22.029,17.455l-18.674,79.526l-3.641,15.507l-3.642,15.507h-27.471l-4.017-15.507l-4.018-15.507
				l-12.576-48.543l15.62-34.472c2.966-6.545-1.819-13.968-9.006-13.968h-33.525c-7.186,0-11.972,7.423-9.006,13.968l15.62,34.472
				l-13.053,48.543l-4.169,15.507l-4.169,15.507h-26.69l-3.641-15.507l-3.641-15.507l-18.674-79.526
				c-2.401-10.228-11.524-17.455-22.029-17.455H142.79c-32.846,0-59.473,26.627-59.473,59.473v37.511v15.507v15.506H43.898
				c-16.569,0-30,13.433-30,30v24.675C13.898,726.855,27.329,740.287,43.898,740.287z"/>
		</g>
	</g>
</g>
<g>
</g>
<g>
</g>
<g>
</g>
<g>
</g>
<g>
</g>
<g>
</g>
<g>
</g>
<g>
</g>
<g>
</g>
<g>
</g>
<g>
</g>
<g>
</g>
<g>
</g>
<g>
</g>
<g>
</g>
</svg>
